<svg xmlns="http://www.w3.org/2000/svg" clip-rule="evenodd" fill-rule="evenodd" stroke-linejoin="round" stroke-miterlimit="2" version="1.1" viewBox="0 0 1286 257" xml:space="preserve">
    <g transform="matrix(.94004 0 0 .93366 -65.786 -92.965)">
        <rect x="69.982" y="99.57" width="1367" height="274.61" fill="none"/>
        <g transform="matrix(3.0913 0 0 3.1124 164.18 240.84)">
            <g transform="translate(-22.1 -39.75)">
                <clipPath id="b" fill="#ffffff">
                    <rect width="44.2" height="79.5" fill="#ffffff"/>
                </clipPath>
                <g clip-path="url(#b)">
                    <g transform="translate(-27.9 -8.3)">
                        <path d="m72.1 74.6-2.2-8.3-1.6 0.4v-3.8c3-5.1 3.2-10.6 3.2-12.3v-29.3c0-3.9-3.2-7.1-7.1-7.1s-7.1 3.2-7.1 7.1v0.4c-0.5-0.1-1.1-0.2-1.7-0.2-1.6 0-3.2 0.6-4.4 1.5-1.2-1-2.8-1.5-4.4-1.5-0.6 0-1.1 0.1-1.7 0.2v-6.3c0-3.9-3.2-7.1-7.1-7.1h-1.5c-3.9 0-7.1 3.2-7.1 7.1v26.5c-1 1.2-1.5 2.7-1.5 4.3v5.9c0 4.2 2.6 9.3 6.6 13.1v10.6l-3 0.8 2.2 8.3 0.8-0.2v3.1h3.5v-4l26.8-7.2v11.2h3.5v-12.2l3.8-1zm-20.2-46c0-2 1.6-3.7 3.7-3.7 2 0 3.7 1.6 3.7 3.7v14.7c0 2-1.6 3.7-3.7 3.7-0.2 0-0.5 0-0.7-0.1v-0.7c0-2-1.2-3.8-2.9-4.6l-0.1-13zm-8.8 0c0-2 1.6-3.7 3.7-3.7 2 0 3.7 1.6 3.7 3.7v12.5c-0.2 0-0.5-0.1-0.7-0.1h-6.6v-12.4h-0.1zm-10.2-13.2c0-2 1.6-3.7 3.7-3.7h1.4c2 0 3.7 1.6 3.7 3.7v25.7h-6.6c-0.8 0-1.5 0.2-2.2 0.5v-26.2zm-1.5 36.7v-5.8c0-2 1.6-3.7 3.7-3.7h14.7c2 0 3.7 1.6 3.7 3.7v1.5c0 2-1.6 3.7-3.7 3.7h-6.5v1.5h6.5c2.6 0 4.7-2 5.1-4.5 0.3 0 0.5 0.1 0.8 0.1 2.8 0 5.1-2.3 5.1-5.1v-22.2c0-2 1.6-3.7 3.7-3.7s3.7 1.6 3.7 3.7v29.4c0 5.8-2.9 16.9-13.9 16.9h-5.9c-10.1-0.1-17-10.1-17-15.5zm10.9 29-1.4-5.4 11.6-3.1 1.4 5.5-11.6 3zm-4.3-6.2v-9.5c2.5 1.8 5.5 3.1 8.8 3.4l7.3 0.1c4.9 0 8.3-1.9 10.7-4.7v3.5l-26.8 7.2z" fill="#ffffff" fill-rule="nonzero"/>
                    </g>
                </g>
            </g>
        </g>
        <g transform="matrix(9.3253 0 0 9.389 859.56 258.48)">
            <g transform="translate(-58 -9.02)">
                <clipPath id="a" fill="#ffffff">
                    <rect width="116" height="18.04" fill="#ffffff"/>
                </clipPath>
                <g clip-path="url(#a)">
                    <g transform="translate(-.9 -5.76)">
                        <path d="m13.02 18.5c-1.26 1.12-2.9 1.7-4.8 1.7-3.96 0-7.32-2.94-7.32-7.2s3.36-7.2 7.32-7.2c1.88 0 3.5 0.6 4.72 1.66l-1.94 2.18c-0.7-0.48-1.64-0.82-2.58-0.82-2.46 0-4.16 1.76-4.16 4.18s1.7 4.18 4.16 4.18c0.98 0 1.98-0.38 2.68-0.94l1.92 2.26zm5.52 1.66c-1.94 0-3.92-1.3-3.92-4.6v-5.96h3.16v5.74c0 1.58 0.54 2.08 1.54 2.08 1.42 0 2.24-1.38 2.44-1.98v-5.84h3.16v10.4h-3.16v-1.8c-0.2 0.5-1.26 1.96-3.22 1.96zm11.58-14.3v14.14h-3.16v-14.14h3.16zm7.1 11.5c0.56 0 0.96-0.08 1.4-0.2v2.62c-0.44 0.2-1.16 0.34-2.22 0.34-1.74 0-3.2-0.58-3.2-3.78v-4.14h-1.46v-2.6h1.46v-2.44h3.16v2.44h2.22v2.6h-2.22v4.14c0 0.46 0.12 1.02 0.86 1.02zm6.88 2.8c-1.94 0-3.92-1.3-3.92-4.6v-5.96h3.16v5.74c0 1.58 0.54 2.08 1.54 2.08 1.42 0 2.24-1.38 2.44-1.98v-5.84h3.16v10.4h-3.16v-1.8c-0.2 0.5-1.26 1.96-3.22 1.96zm15.1-10.72c0.28 0 0.56 0 0.82 0.06v3.02c-0.24-0.06-0.52-0.06-0.72-0.06-1.92 0-3.46 1.38-3.62 3.3v4.24h-3.16v-10.4h3.16v2.54c0.48-1.56 1.68-2.7 3.52-2.7zm7.6-0.02c2.36 0 5.66 1.78 5 6.48h-7.26c0.36 1.08 1.3 1.64 2.56 1.64 1.28 0 1.68-0.28 2.4-0.58l1.74 1.68c-0.92 0.9-2.16 1.56-4.26 1.56-2.58 0-5.66-1.78-5.66-5.36 0-3.64 3.12-5.42 5.48-5.42zm0 2.7c-0.9 0-1.82 0.52-2.22 1.56h4.42c-0.32-1.04-1.3-1.56-2.2-1.56zm11.64-6.36c2.52 0 4.06 1.56 4.82 2.88l-2.36 1.42c-0.78-1-1.46-1.46-2.46-1.46-0.86 0-1.5 0.5-1.5 1.2 0 0.72 0.4 1.08 1.4 1.42l0.94 0.34c3.26 1.14 4.38 2.58 4.38 4.44 0 2.92-2.76 4.3-5.16 4.3-2.56 0-4.52-1.52-5.22-3.46l2.46-1.32c0.5 0.9 1.24 1.88 2.76 1.88 1.04 0 1.82-0.42 1.82-1.36 0-0.86-0.48-1.26-1.98-1.82l-0.8-0.28c-2.06-0.74-3.8-1.72-3.8-4.28 0-2.28 2.16-3.9 4.7-3.9zm12.78 3.66c2.38 0 5.12 1.78 5.12 5.36 0 3.72-2.74 5.42-5.12 5.42-1.6 0-2.54-0.88-2.68-1.24v4.84h-3.16v-14.2h3.16v0.96c0.14-0.22 1.08-1.14 2.68-1.14zm-0.46 8c1.36 0 2.52-0.92 2.52-2.64 0-1.66-1.16-2.58-2.52-2.58-1.3 0-2.36 0.9-2.36 2.58 0 1.74 1.06 2.64 2.36 2.64zm12.46-8c2.36 0 5.48 1.78 5.48 5.42 0 3.66-3.12 5.36-5.48 5.36s-5.48-1.7-5.48-5.36c0-3.64 3.12-5.42 5.48-5.42zm0 2.78c-1.2 0-2.42 0.92-2.42 2.64 0 1.66 1.22 2.58 2.42 2.58s2.44-0.92 2.44-2.58c0-1.72-1.24-2.64-2.44-2.64zm12.26 5.16c0.56 0 0.96-0.08 1.4-0.2v2.62c-0.44 0.2-1.16 0.34-2.22 0.34-1.74 0-3.2-0.58-3.2-3.78v-4.14h-1.46v-2.6h1.46v-2.44h3.16v2.44h2.22v2.6h-2.22v4.14c0 0.46 0.12 1.02 0.86 1.02z" fill="#ffffff" fill-rule="nonzero"/>
                    </g>
                </g>
            </g>
        </g>
    </g>
</svg>